<?xml version="1.0" encoding="utf-8"?>
<svg xmlns="http://www.w3.org/2000/svg" version="1.1" x="0px" y="0px" viewBox="0 0 100 100" style="enable-background:new 0 0 100 100;">
  <defs>
    <linearGradient id="purpleGradient" x1="0%" y1="0%" x2="100%" y2="0%">
      <stop offset="0" stop-color="rgb(245 222 179)"/>
      <stop offset="1" stop-color="rgb(245 222 179)"/>
    </linearGradient>
  </defs>
  <g>
    <rect x="74.7" y="51.2" width="22.8" stroke-width="3" height="22.8" stroke="url(#purpleGradient)" fill="transparent"/>
    <rect x="42.2" y="51.2" width="22.8" stroke-width="3" height="22.8" stroke="url(#purpleGradient)" fill="transparent"/>
    <rect x="42.2" y="18.7" width="22.8" stroke-width="3" height="22.8" stroke="url(#purpleGradient)" fill="transparent"/>
    <rect x="9.8" y="51.2" width="22.8" height="22.8" stroke-width="3" stroke="url(#purpleGradient)" fill="transparent"/>
  </g>
  <g>
    <path stroke="url(#purpleGradient)" fill="url(#purpleGradient)" stroke-width="0" d="M 88.1 56.9 C 87.6 56.4 86.7 56.4 86.2 56.9 C 85.7 57.4 85.7 58.3 86.2 58.8 L 88.4 61 L 79.3 61 C 78.6 61 78 61.6 78 62.3 C 78 63 78.6 63.6 79.3 63.6 L 88.4 63.6 L 86.2 65.8 C 85.7 66.3 85.7 67.2 86.2 67.7 C 86.5 68 86.8 68.1 87.1 68.1 C 87.4 68.1 87.8 68 88 67.7 L 92.4 63.3 C 92.9 62.8 92.9 61.9 92.4 61.4 L 88.1 56.9 Z"/>
    <path stroke="url(#purpleGradient)" fill="url(#purpleGradient)" stroke-width="0" d="M 57.5 63 L 55.3 65.2 L 55.3 56.1 C 55.3 55.4 54.7 54.8 54 54.8 C 53.3 54.8 52.7 55.4 52.7 56.1 L 52.7 65.2 L 50.5 63 C 50 62.5 49.1 62.5 48.6 63 C 48.3 63.3 48.2 63.6 48.2 63.9 C 48.2 64.2 48.3 64.6 48.6 64.8 L 53 69.2 C 53.5 69.7 54.4 69.7 54.9 69.2 L 59.3 64.8 C 59.8 64.3 59.8 63.4 59.3 62.9 C 58.9 62.5 58 62.5 57.5 63 Z"/>
    <path stroke="url(#purpleGradient)" fill="url(#purpleGradient)" stroke-width="0" d="M 54.9 22.7 C 54.4 22.2 53.5 22.2 53 22.7 L 48.6 27.1 C 48.1 27.6 48.1 28.5 48.6 29 C 49.1 29.5 50 29.5 50.5 29 L 52.7 26.8 L 52.7 35.9 C 52.7 36.6 53.3 37.2 54 37.2 C 54.7 37.2 55.3 36.6 55.3 35.9 L 55.3 26.8 L 57.5 29 C 58 29.5 58.9 29.5 59.4 29 C 59.7 28.7 59.8 28.4 59.8 28.1 C 59.8 27.8 59.7 27.4 59.4 27.2 L 54.9 22.7 Z"/>
    <path stroke="url(#purpleGradient)" fill="url(#purpleGradient)" stroke-width="0" d="M 27.7 60.9 L 18.6 60.9 L 20.8 58.7 C 21.3 58.2 21.3 57.3 20.8 56.8 C 20.5 56.5 20.2 56.4 19.9 56.4 C 19.6 56.4 19.2 56.5 19 56.8 L 14.6 61.2 C 14.1 61.7 14.1 62.6 14.6 63.1 L 19 67.5 C 19.5 68 20.4 68 20.9 67.5 C 21.4 67 21.4 66.1 20.9 65.6 L 18.7 63.4 L 27.8 63.4 C 28.5 63.4 29.1 62.8 29.1 62.1 C 29.1 61.4 28.4 60.9 27.7 60.9 Z"/>
  </g>
  <g fill="#1a171b" transform="matrix(1, 0, 0, 1, 62.745319, 4.296937)">
    <path stroke="url(#purpleGradient)" fill="url(#purpleGradient)" d="m21.475 5.33c-.042-.021-4.203-1.997-7.514-2.249-3.48-.271-6.967 1.576-7.003 1.596l-.471-.883c.152-.081 3.78-1.992 7.55-1.711 3.499.268 7.692 2.261 7.869 2.345z"/>
    <path stroke="url(#purpleGradient)" fill="url(#purpleGradient)" d="m17.957 7.297-.438-.899 3.43-1.672-2.216-3.045.809-.588 2.917 4.008z"/>
    <path stroke="url(#purpleGradient)" fill="url(#purpleGradient)" d="m3.023 9.914-.431-.902c.177-.084 4.37-2.077 7.87-2.345 3.758-.274 7.397 1.63 7.549 1.711l-.471.883c-.035-.019-3.533-1.867-7.002-1.596-3.311.252-7.473 2.229-7.515 2.249z"/>
    <path stroke="url(#purpleGradient)" fill="url(#purpleGradient)" d="m6.542 11.881-4.503-2.196 2.917-4.008.809.588-2.216 3.045 3.43 1.672z"/>
    <path stroke="url(#purpleGradient)" fill="url(#purpleGradient)" d="M 25.517 40.404 C 24.244 40.404 22.735 40.091 21.567 39.831 C 19.574 39.387 15.42 37.16 14.533 36.241 C 13.731 35.41 10.774 30.438 10.457 27.843 C 10.319 26.713 12.693 18.457 12.888 18.993 C 12.995 19.289 14.454 22.156 14.678 22.078 C 14.633 21.975 14.195 21.359 14.149 21.257 C 13.459 19.755 11.014 18.293 10.112 16.761 C 8.585 14.167 8.863 12.989 8.959 12.399 C 9.12 11.399 9.94 10.245 11.032 10.043 L 11.225 10.004 C 11.477 9.951 11.762 9.892 12.084 9.892 C 13.037 9.892 13.91 10.436 14.833 11.603 C 15.632 12.614 16.926 15.405 18.015 17.93 C 17.965 17.294 17.984 16.763 18.118 16.453 C 18.658 15.2 20.164 14.707 20.623 14.678 L 20.736 14.675 C 21.027 14.675 22.516 14.748 23.206 16.196 C 23.316 16.428 23.421 16.678 23.518 16.931 C 23.642 16.501 23.818 16.126 24.069 15.912 C 24.841 15.256 25.898 14.916 26.617 15.118 C 27.39 15.335 28.041 16.153 28.276 17.206 C 28.377 16.978 28.499 16.793 28.643 16.685 C 29.342 16.161 31.217 15.96 31.987 16.494 C 32.927 17.146 35.003 21.197 35.383 24.613 C 35.694 27.421 36.475 32.439 35.316 34.507 C 34.112 36.652 32.509 38.337 30.73 38.976 C 29.864 39.285 27.977 40.137 26.567 40.137 L 25.517 40.404 Z M 14.068 22.658 C 13.404 22.724 12.103 26.444 12.26 27.739 C 12.542 30.067 14.541 33.045 15.253 33.783 C 16.1 34.661 20.11 37.681 21.822 38.062 C 22.921 38.307 24.135 38.437 25.337 38.437 C 26.616 38.437 27.778 38.282 28.526 38.012 C 29.871 37.529 32.287 36.066 33.438 34.013 C 34.186 32.682 34.323 29.294 33.814 24.721 C 33.453 21.463 31.346 17.867 30.757 17.457 C 30.284 17.13 29.496 17.29 29.241 17.482 C 29.1 17.643 28.891 18.585 28.81 19.482 L 28.559 22.249 L 27.409 19.568 C 27.409 19.568 26.526 17.847 26.322 16.904 C 26.148 16.107 26.513 16.939 26.174 16.845 C 25.801 16.739 25.615 16.738 25.108 17.17 C 24.832 17.405 25.097 18.245 25.088 19.315 L 24.188 23.491 L 23.239 19.443 C 23.235 19.425 22.674 17.721 22.139 16.604 C 21.707 15.698 22.015 15.844 21.83 15.844 C 21.539 15.864 20.188 16.011 19.844 16.808 C 19.604 17.367 19.34 20.322 19.981 22.703 L 19.033 23.015 C 19 22.928 14.766 14.196 13.301 12.343 C 12.359 11.151 12.478 11.577 12.086 11.577 C 11.866 11.577 11.49 12.419 11.267 12.466 L 11.776 11.842 C 11.214 11.946 12.322 10.814 12.205 11.527 C 12.214 11.909 10.99 14.698 11.822 16.111 C 12.735 17.663 13.79 19.296 14.501 20.843 C 14.682 21.236 14.831 21.771 14.986 22.189 L 12.566 18.454 C 13.651 19.949 18.628 28.043 16.672 29.173 L 15.679 29.288 C 15.675 29.253 15.217 25.751 14.107 22.695 C 14.091 22.678 14.078 22.666 14.068 22.658 Z"/>
  </g>
</svg>