<?xml version="1.0" encoding="utf-8"?>
<svg xmlns="http://www.w3.org/2000/svg" version="1.1" x="0px" y="0px" viewBox="0 0 100 125" style="enable-background:new 0 0 100 100;">
  <defs>
    <linearGradient id="purpleGradient" x1="0%" y1="0%" x2="100%" y2="0%">
      <stop offset="0%" stop-color="#fed1c7"/>  <!-- Gray -->
      <stop offset="100%" stop-color="#fed1c7"/> <!-- White -->
    </linearGradient>
  </defs>
  <g>
    <g>
      <path   stroke="url(#purpleGradient)" fill="url(#purpleGradient)"
              d="M85.1,60.9c-0.5-0.5-1.4-0.5-1.9,0c-0.5,0.5-0.5,1.4,0,1.9l2.2,2.2h-9.1c-0.7,0-1.3,0.6-1.3,1.3s0.6,1.3,1.3,1.3h9.1     l-2.2,2.2c-0.5,0.5-0.5,1.4,0,1.9c0.3,0.3,0.6,0.4,0.9,0.4c0.3,0,0.7-0.1,0.9-0.4l4.4-4.4c0.5-0.5,0.5-1.4,0-1.9L85.1,60.9z"/>
      <path  stroke="url(#purpleGradient)" fill="url(#purpleGradient)"
             d="M90.2,51.2H74.7c-4,0-7.3,3.3-7.3,7.3V74c0,4,3.3,7.3,7.3,7.3h15.6c4,0,7.3-3.3,7.3-7.3V58.5     C97.5,54.5,94.2,51.2,90.2,51.2z M94.8,74c0,2.5-2.1,4.6-4.6,4.6H74.7c-2.5,0-4.6-2.1-4.6-4.6V58.5c0-2.5,2.1-4.6,4.6-4.6h15.6     c2.5,0,4.6,2.1,4.6,4.6V74z"/>
      <path stroke="url(#purpleGradient)" fill="url(#purpleGradient)"  d="M53.5,67l-2.2,2.2v-9.1c0-0.7-0.6-1.3-1.3-1.3s-1.3,0.6-1.3,1.3v9.1L46.5,67c-0.5-0.5-1.4-0.5-1.9,0     c-0.3,0.3-0.4,0.6-0.4,0.9s0.1,0.7,0.4,0.9l4.4,4.4c0.5,0.5,1.4,0.5,1.9,0l4.4-4.4c0.5-0.5,0.5-1.4,0-1.9     C54.9,66.5,54,66.5,53.5,67z"/>
      <path  stroke="url(#purpleGradient)" fill="url(#purpleGradient)"  d="M57.8,51.2H42.2c-4,0-7.3,3.3-7.3,7.3V74c0,4,3.3,7.3,7.3,7.3h15.6c4,0,7.3-3.3,7.3-7.3V58.5     C65,54.5,61.8,51.2,57.8,51.2z M62.4,74c0,2.5-2.1,4.6-4.6,4.6H42.2c-2.5,0-4.6-2.1-4.6-4.6V58.5c0-2.5,2.1-4.6,4.6-4.6h15.6     c2.5,0,4.6,2.1,4.6,4.6V74z"/>
      <path  stroke="url(#purpleGradient)" fill="url(#purpleGradient)" d="M50.9,26.7c-0.5-0.5-1.4-0.5-1.9,0l-4.4,4.4c-0.5,0.5-0.5,1.4,0,1.9c0.5,0.5,1.4,0.5,1.9,0l2.2-2.2v9.1     c0,0.7,0.6,1.3,1.3,1.3s1.3-0.6,1.3-1.3v-9.1l2.2,2.2c0.5,0.5,1.4,0.5,1.9,0c0.3-0.3,0.4-0.6,0.4-0.9c0-0.3-0.1-0.7-0.4-0.9     L50.9,26.7z"/>
      <path  stroke="url(#purpleGradient)" fill="url(#purpleGradient)"  d="M57.8,18.7H42.2c-4,0-7.3,3.3-7.3,7.3v15.6c0,4,3.3,7.3,7.3,7.3h15.6c4,0,7.3-3.3,7.3-7.3V26C65,22,61.8,18.7,57.8,18.7z      M62.4,41.5c0,2.5-2.1,4.6-4.6,4.6H42.2c-2.5,0-4.6-2.1-4.6-4.6V26c0-2.5,2.1-4.6,4.6-4.6h15.6c2.5,0,4.6,2.1,4.6,4.6V41.5z"/>
      <path  stroke="url(#purpleGradient)" fill="url(#purpleGradient)"  d="M23.7,64.9h-9.1l2.2-2.2c0.5-0.5,0.5-1.4,0-1.9c-0.3-0.3-0.6-0.4-0.9-0.4c-0.3,0-0.7,0.1-0.9,0.4l-4.4,4.4     c-0.5,0.5-0.5,1.4,0,1.9l4.4,4.4c0.5,0.5,1.4,0.5,1.9,0c0.5-0.5,0.5-1.4,0-1.9l-2.2-2.2h9.1c0.7,0,1.3-0.6,1.3-1.3     S24.4,64.9,23.7,64.9z"/>
      <path  stroke="url(#purpleGradient)" fill="url(#purpleGradient)"  d="M25.3,51.2H9.8c-4,0-7.3,3.3-7.3,7.3V74c0,4,3.3,7.3,7.3,7.3h15.6c4,0,7.3-3.3,7.3-7.3V58.5     C32.6,54.5,29.3,51.2,25.3,51.2z M29.9,74c0,2.5-2.1,4.6-4.6,4.6H9.8c-2.5,0-4.6-2.1-4.6-4.6V58.5c0-2.5,2.1-4.6,4.6-4.6h15.6     c2.5,0,4.6,2.1,4.6,4.6V74z"/>
    </g>
  </g>
  <g fill="#1a171b" transform="matrix(1, 0, 0, 1, 62.745319, 4.296937)">
    <path  stroke="url(#purpleGradient)" fill="url(#purpleGradient)" d="m21.475 5.33c-.042-.021-4.203-1.997-7.514-2.249-3.48-.271-6.967 1.576-7.003 1.596l-.471-.883c.152-.081 3.78-1.992 7.55-1.711 3.499.268 7.692 2.261 7.869 2.345z"/>
    <path  stroke="url(#purpleGradient)" fill="url(#purpleGradient)" d="m17.957 7.297-.438-.899 3.43-1.672-2.216-3.045.809-.588 2.917 4.008z"/>
    <path  stroke="url(#purpleGradient)" fill="url(#purpleGradient)" d="m3.023 9.914-.431-.902c.177-.084 4.37-2.077 7.87-2.345 3.758-.274 7.397 1.63 7.549 1.711l-.471.883c-.035-.019-3.533-1.867-7.002-1.596-3.311.252-7.473 2.229-7.515 2.249z"/>
    <path  stroke="url(#purpleGradient)" fill="url(#purpleGradient)" d="m6.542 11.881-4.503-2.196 2.917-4.008.809.588-2.216 3.045 3.43 1.672z"/>
    <path  stroke="url(#purpleGradient)" fill="url(#purpleGradient)" d="M 25.517 40.404 C 24.244 40.404 22.735 40.091 21.567 39.831 C 19.574 39.387 15.42 37.16 14.533 36.241 C 13.731 35.41 10.712 30.457 10.397 27.862000000000002 C 10.259 26.732 11.827 20.191 12.888 18.993 C 13.097 18.758 14.454 22.156 14.678 22.078 C 14.633 21.975 14.195 21.359 14.149000000000001 21.257 C 13.459 19.755 11.014 18.293 10.112 16.761 C 8.585 14.167 8.863 12.989 8.959 12.399000000000001 C 9.12 11.399000000000001 9.94 10.245 11.032 10.043 L 11.225 10.004 C 11.477 9.951 11.762 9.892 12.084 9.892 C 13.037 9.892 13.91 10.436 14.833 11.603 C 15.632 12.614 16.926 15.405 18.015 17.93 C 17.965 17.294 17.984 16.763 18.118 16.453 C 18.658 15.2 20.164 14.707 20.623 14.678 L 20.736 14.675 C 21.027 14.675 22.516 14.748 23.206 16.196 C 23.316 16.428 23.421 16.678 23.518 16.931 C 23.642 16.501 23.818 16.126 24.069 15.912 C 24.841 15.256 25.898 14.916 26.617 15.118 C 27.39 15.335 28.041 16.153 28.276 17.206 C 28.377 16.978 28.499 16.793 28.643 16.685 C 29.342 16.161 31.217 15.96 31.987 16.494 C 32.927 17.146 35.003 21.197 35.383 24.613 C 35.694 27.421 36.475 32.439 35.316 34.507 C 34.112 36.652 32.509 38.337 30.73 38.976 C 29.864 39.285 27.977 40.137 26.567 40.137 Z M 14.068 22.658 C 13.404 22.724 12.103 26.444 12.26 27.739 C 12.542 30.067 14.541 33.045 15.253 33.783 C 16.1 34.661 20.11 37.681 21.822 38.062 C 22.921 38.307 24.135 38.437 25.337 38.437 C 26.616 38.437 27.778 38.282 28.526 38.012 C 29.871 37.529 32.287 36.066 33.438 34.013 C 34.186 32.682 34.323 29.294 33.814 24.721 C 33.453 21.463 31.346 17.867 30.757 17.457 C 30.284 17.13 29.496 17.29 29.241 17.482 C 29.1 17.643 28.891 18.585 28.81 19.482 L 28.559 22.249 L 27.409 19.568 C 27.409 19.568 26.526 17.847 26.322 16.904 C 26.148 16.107 26.513 16.939 26.174 16.845 C 25.801 16.739 25.615 16.738 25.108 17.17 C 24.832 17.405 25.097 18.245 25.088 19.315 L 24.188 23.491 L 23.239 19.443 C 23.235 19.425 22.674 17.721 22.139 16.604 C 21.707 15.698 22.015 15.844 21.83 15.844 C 21.539 15.864 20.188 16.011 19.844 16.808 C 19.604 17.367 19.34 20.322 19.981 22.703 L 19.033 23.015 C 19 22.928 14.766 14.196 13.301 12.343 C 12.359 11.151 12.478 11.577 12.086 11.577 C 11.866 11.577 11.49 12.419 11.267 12.466 L 11.776 11.842 C 11.214 11.946 12.322 10.814 12.205 11.527 C 12.214 11.909 10.99 14.698 11.822 16.111 C 12.735 17.663 13.79 19.296 14.501 20.843 C 14.682 21.236 14.831 21.771 14.986 22.189 L 13.395 19.423000000000002 C 14.48 20.918 18.628 28.043 16.672 29.173 L 15.679 29.288 C 15.675 29.253 15.217 25.751 14.107 22.695 C 14.091 22.678 14.078 22.666 14.068 22.658 Z"/>
  </g>
</svg>